<?xml version="1.0" encoding="UTF-8"?>
<svg xmlns="http://www.w3.org/2000/svg" xmlns:xlink="http://www.w3.org/1999/xlink" width="18px" height="12px" viewBox="0 0 16 10" version="1.1">
<g>
<path style="stroke:none;fill-rule:nonzero;fill:rgb(60%,0%,0%);fill-opacity:1;" d="M 0 0 L 0.59375 0 L 0.59375 10 L 0 10 Z M 1.183594 0 L 2.964844 0 L 2.964844 10 L 1.183594 10 Z M 3.554688 0 L 5.332031 0 L 5.332031 10 L 3.554688 10 Z M 3.554688 0 "/>
<path style="stroke:none;fill-rule:nonzero;fill:rgb(20%,60%,40%);fill-opacity:1;" d="M 5.925781 0 L 6.519531 0 L 6.519531 10 L 5.925781 10 Z M 7.109375 0 L 7.703125 0 L 7.703125 10 L 7.109375 10 Z M 14.222656 0 L 14.816406 0 L 14.816406 10 L 14.222656 10 Z M 15.40625 0 L 16 0 L 16 10 L 15.40625 10 Z M 15.40625 0 "/>
<path style="stroke:none;fill-rule:nonzero;fill:rgb(0%,40%,60%);fill-opacity:1;" d="M 8.296875 0 L 10.074219 0 L 10.074219 10 L 8.296875 10 Z M 10.667969 0 L 11.257812 0 L 11.257812 10 L 10.667969 10 Z M 11.851562 0 L 13.628906 0 L 13.628906 10 L 11.851562 10 Z M 11.851562 0 "/>
</g>
</svg>
